# xmcd CD database file
#
# Track frame offsets:
#	150
#	17645
#	32250
#	52740
#	74672
#	111845
#	135412
#	150247
#	171967
#	197212
#
# Disc length: 2982 seconds
#
# Revision: 5
# Processed by: cddbd v1.4PL0 Copyright (c) Steve Scherf et al.
# Submitted via: CDex 1.40Release
#
DISCID=780ba40a
DTITLE=Tom Waits - Blue Valentine
DYEAR=1978
DGENRE=Blues
TTITLE0=Somewhere
TTITLE1=Red Shoes By The Drugstore
TTITLE2=Christmas Card From A Hooker In Minneapolis
TTITLE3=Romeo Is Bleeding
TTITLE4=$29.00
TTITLE5=Wrong Side Of The Road
TTITLE6=Whistlin' Past The Graveyard
TTITLE7=Kentucky Avenue
TTITLE8=A Sweet Little Bullet From A Pretty Blue Gun
TTITLE9=Blue Valentines
EXTD=1978   Atlantic   162-2\ncd mastering by Zal Schreiber\nAtlantic Studios, NYC\nElectra 162-2\n1978 Electra Entertainment\ncd Mastering by Zal Schreiber,\nAtlantic Studios, NYC YEAR: 1978 ID3G: 0
EXTT0=
EXTT1=
EXTT2=
EXTT3=
EXTT4=
EXTT5=
EXTT6=
EXTT7=
EXTT8=
EXTT9=
PLAYORDER=
